<svg xmlns="http://www.w3.org/2000/svg" xmlns:xlink="http://www.w3.org/1999/xlink" width="66" zoomAndPan="magnify" viewBox="0 0 49.5 49.499998" height="66" preserveAspectRatio="xMidYMid meet" version="1.0"><defs><clipPath id="42c51da48a"><path d="M 14.71875 16.519531 L 34.007812 16.519531 L 34.007812 32.480469 L 14.71875 32.480469 Z M 14.71875 16.519531 " clip-rule="nonzero"/></clipPath></defs><g clip-path="url(#42c51da48a)"><path fill="#f9f9f9" d="M 33.078125 30.046875 C 33.078125 30.726562 32.523438 31.28125 31.84375 31.28125 L 17.15625 31.28125 C 16.476562 31.28125 15.921875 30.726562 15.921875 30.046875 L 15.921875 20.253906 C 15.921875 19.574219 16.476562 19.019531 17.15625 19.019531 L 21.578125 19.019531 L 22.394531 17.789062 C 22.417969 17.761719 22.488281 17.726562 22.515625 17.71875 L 26.472656 17.71875 C 26.507812 17.722656 26.578125 17.761719 26.597656 17.785156 L 27.421875 19.019531 L 31.84375 19.019531 C 32.523438 19.019531 33.078125 19.574219 33.078125 20.253906 Z M 31.84375 17.816406 L 28.0625 17.816406 L 27.597656 17.117188 C 27.367188 16.769531 26.898438 16.519531 26.480469 16.519531 L 22.515625 16.519531 C 22.09375 16.519531 21.636719 16.765625 21.402344 17.117188 L 20.933594 17.816406 L 17.15625 17.816406 C 15.8125 17.816406 14.71875 18.910156 14.71875 20.253906 L 14.71875 30.046875 C 14.71875 31.390625 15.8125 32.480469 17.15625 32.480469 L 31.84375 32.480469 C 33.183594 32.480469 34.277344 31.390625 34.277344 30.046875 L 34.277344 20.253906 C 34.277344 18.910156 33.183594 17.816406 31.84375 17.816406 " fill-opacity="1" fill-rule="nonzero"/></g><path fill="#f9f9f9" d="M 24.5 29.261719 C 22.230469 29.261719 20.386719 27.417969 20.386719 25.152344 C 20.386719 22.882812 22.230469 21.039062 24.5 21.039062 C 26.765625 21.039062 28.609375 22.882812 28.609375 25.152344 C 28.609375 27.417969 26.765625 29.261719 24.5 29.261719 Z M 24.5 19.839844 C 21.570312 19.839844 19.1875 22.222656 19.1875 25.152344 C 19.1875 28.078125 21.570312 30.460938 24.5 30.460938 C 27.429688 30.460938 29.8125 28.078125 29.8125 25.152344 C 29.8125 22.222656 27.429688 19.839844 24.5 19.839844 " fill-opacity="1" fill-rule="nonzero"/><path fill="#f9f9f9" d="M 24.5 22.269531 C 22.90625 22.269531 21.617188 23.558594 21.617188 25.152344 C 21.617188 26.742188 22.90625 28.03125 24.5 28.03125 C 26.089844 28.03125 27.382812 26.742188 27.382812 25.152344 C 27.382812 23.558594 26.089844 22.269531 24.5 22.269531 " fill-opacity="1" fill-rule="nonzero"/><path fill="#f9f9f9" d="M 18.167969 21.601562 C 17.820312 21.601562 17.535156 21.320312 17.535156 20.96875 C 17.535156 20.621094 17.820312 20.335938 18.167969 20.335938 C 18.519531 20.335938 18.800781 20.621094 18.800781 20.96875 C 18.800781 21.320312 18.519531 21.601562 18.167969 21.601562 Z M 18.167969 19.535156 C 17.378906 19.535156 16.734375 20.179688 16.734375 20.96875 C 16.734375 21.761719 17.378906 22.402344 18.167969 22.402344 C 18.960938 22.402344 19.605469 21.761719 19.605469 20.96875 C 19.605469 20.179688 18.960938 19.535156 18.167969 19.535156 " fill-opacity="1" fill-rule="nonzero"/></svg>